#!OML:ASF I:\Actors\actors\Patient Classification 1\Patient 1\Session 1\Subject1.ASF
:FULLY-SPECIFIED
:DEGREES
3479
root 1.41564 17.6074 7.33039 26.5866 27.7972 -10.4551
lowerback 31.8197 2.7767 8.44795
upperback 2.03855 6.44135 -0.792397
thorax -13.236 2.39762 -7.92993
lowerneck -5.47823 -13.2434 -13.6503
upperneck -23.6561 -13.8156 29.0164
head -2.39729 -7.60337 11.4046
rclavicle 3.65764e-014 -3.69739e-014
rhumerus 96.0794 -20.9986 -91.461
rradius 22.2074
rwrist 17.762
rhand 1.72873 -64.4182
rfingers 7.12502
rthumb 27.2451 812.47
lclavicle 3.65764e-014 -3.69739e-014
lhumerus -53.6341 -14.9235 87.3137
lradius 105.854
lwrist 41.0769
lhand -31.3646 -32.2532
lfingers 7.12502
lthumb -4.63522 -2.32392
rfemur -19.7353 26.343 14.9948
rtibia -4.72301
rfoot -51.9874 -36.8106
rtoes 49.921
lfemur -41.096 -23.9945 5.96281
ltibia 6.53331
lfoot 0.243591 14.7068
ltoes -16.6184
3480
root 1.41389 17.6107 7.33518 26.399 27.8162 -10.5469
lowerback 31.8602 2.5636 8.36043
upperback 2.03535 6.13083 -0.877831
thorax -13.3118 2.25668 -7.86691
lowerneck -5.99876 -13.1852 -13.6458
upperneck -22.8466 -13.8047 29.1656
head -2.05899 -7.54458 11.3538
rclavicle 4.69132e-014 -6.24184e-014
rhumerus 97.7351 -21.3497 -89.9347
rradius 22.7024
rwrist 16.6655
rhand 1.57927 -64.6006
rfingers 7.12502
rthumb 27.1021 812.675
lclavicle 4.69132e-014 -6.24184e-014
lhumerus -53.1751 -15.1414 86.9079
lradius 105.85
lwrist 41.2548
lhand -32.0594 -31.0556
lfingers 7.12502
lthumb -5.30608 -1.14204
rfemur -19.518 26.3655 15.2155
rtibia -4.7564
rfoot -51.8273 -36.9503
rtoes 49.8172
lfemur -40.8701 -24.0923 6.01484
ltibia 6.45372
lfoot 0.204085 14.7439
ltoes -16.6799
3481
root 1.4124 17.6143 7.34026 26.2196 27.8256 -10.6377
lowerback 31.892 2.36427 8.28595
upperback 2.02357 5.84224 -0.961124
thorax -13.3887 2.12464 -7.81568
lowerneck -6.3362 -13.0945 -13.6838
upperneck -22.2094 -13.7395 29.3201
head -1.80915 -7.4715 11.3501
rclavicle -5.58585e-014 3.29983e-014
rhumerus 99.6333 -21.5607 -89.3209
rradius 22.9207
rwrist 16.4687
rhand 1.61821 -64.6054
rfingers 7.12502
rthumb 27.1394 812.674
lclavicle -5.58585e-014 3.29983e-014
lhumerus -52.716 -15.4221 86.5712
lradius 105.835
lwrist 41.3761
lhand -32.3786 -29.4652
lfingers 7.12502
lthumb -5.61424 0.4404
rfemur -19.3004 26.3993 15.4367
rtibia -4.80142
rfoot -51.7397 -37.0338
rtoes 49.7269
lfemur -40.6357 -24.1306 6.02562
ltibia 6.37644
lfoot 0.160148 14.7106
ltoes -16.681
3482
root 1.4142 17.6139 7.34351 26.1738 27.8666 -10.6427
lowerback 31.7662 2.15901 8.28842
upperback 1.97892 5.55785 -1.06807
thorax -13.425 1.99201 -7.82567
lowerneck -6.57846 -13.0325 -13.7657
upperneck -21.5786 -13.7309 29.4384
head -1.56687 -7.42699 11.3431
rclavicle 0 3.24019e-014
rhumerus 101.406 -21.8565 -88.8676
rradius 22.9562
rwrist 16.5623
rhand 1.8463 -64.6653
rfingers 7.12502
rthumb 27.3576 812.7
lclavicle 0 3.24019e-014
lhumerus -52.3634 -15.5639 86.3741
lradius 105.837
lwrist 41.3711
lhand -32.3466 -29.3137
lfingers 7.12502
lthumb -5.58343 0.592762
rfemur -19.2131 26.3361 15.5099
rtibia -4.83889
rfoot -51.6406 -37.1461
rtoes 49.5847
lfemur -40.6117 -24.2073 6.02791
ltibia 6.41209
lfoot 0.0771514 14.7081
ltoes -16.5299
3483
root 1.41743 17.6105 7.34566 26.214 27.8775 -10.6327
lowerback 31.5182 1.96599 8.30446
upperback 1.92344 5.28031 -1.19553
thorax -13.4174 1.86403 -7.8623
lowerneck -6.87742 -12.9541 -13.7442
upperneck -20.9347 -13.7044 29.48
head -1.33499 -7.37068 11.293
rclavicle -2.0773e-014 2.73329e-014
rhumerus 102.884 -22.2007 -88.3364
rradius 22.931
rwrist 16.7308
rhand 1.9465 -64.8471
rfingers 7.12502
rthumb 27.4534 812.866
lclavicle -2.0773e-014 2.73329e-014
lhumerus -52.1021 -15.4104 86.2181
lradius 105.905
lwrist 41.3862
lhand -32.2026 -29.2939
lfingers 7.12502
lthumb -5.44433 0.61618
rfemur -19.2552 26.2742 15.4923
rtibia -4.8465
rfoot -51.4952 -37.2552
rtoes 49.4943
lfemur -40.7147 -24.2983 6.09603
ltibia 6.49909
lfoot -0.0266942 14.8211
ltoes -16.2063
3484
root 1.41799 17.6096 7.34703 26.234 27.8277 -10.6247
lowerback 31.3667 1.81328 8.21805
upperback 1.87442 5.02166 -1.34993
thorax -13.4493 1.74639 -7.88621
lowerneck -7.29085 -12.8587 -13.4313
upperneck -20.3366 -13.6496 29.4063
head -1.14387 -7.30645 11.1565
rclavicle 3.58309e-014 4.81059e-014
rhumerus 104.196 -22.5394 -87.9468
rradius 22.9701
rwrist 16.738
rhand 1.82162 -65.1114
rfingers 7.12502
rthumb 27.334 813.15
lclavicle 3.58309e-014 4.81059e-014
lhumerus -51.877 -15.1317 86.0457
lradius 106.008
lwrist 41.3813
lhand -31.9079 -29.3657
lfingers 7.12502
lthumb -5.15979 0.551453
rfemur -19.3071 26.2747 15.465
rtibia -4.81089
rfoot -51.36 -37.3633
rtoes 49.3733
lfemur -40.7505 -24.3451 6.14344
ltibia 6.54508
lfoot -0.119618 14.9384
ltoes -15.9488
3485
root 1.41566 17.6127 7.3515 26.0783 27.6719 -10.6862
lowerback 31.4467 1.70091 8.02823
upperback 1.84232 4.79859 -1.49106
thorax -13.5671 1.64479 -7.8639
lowerneck -7.65724 -12.7421 -13.0975
upperneck -19.84 -13.552 29.3719
head -0.995069 -7.23002 11.0478
rclavicle 2.48854e-014 -1.0312e-014
rhumerus 105.424 -22.7711 -87.817
rradius 23.0355
rwrist 16.7403
rhand 1.72361 -65.4002
rfingers 7.12502
rthumb 27.2402 813.453
lclavicle 2.48854e-014 -1.0312e-014
lhumerus -51.7302 -14.8016 85.8986
lradius 106.136
lwrist 41.3286
lhand -31.8428 -29.5574
lfingers 7.12502
lthumb -5.09692 0.36131
rfemur -19.1847 26.4384 15.5661
rtibia -4.76926
rfoot -51.2869 -37.4625
rtoes 49.1972
lfemur -40.4662 -24.3645 6.12511
ltibia 6.44944
lfoot -0.187134 15.0733
ltoes -15.8089
3486
root 1.41258 17.6171 7.3595 25.7735 27.3783 -10.8448
lowerback 31.6545 1.64502 7.77197
upperback 1.83145 4.63834 -1.59331
thorax -13.7131 1.57477 -7.79045
lowerneck -7.95189 -12.6182 -12.8996
upperneck -19.4851 -13.4227 29.3621
head -0.889967 -7.13997 10.9895
rclavicle -6.91771e-014 2.43511e-014
rhumerus 106.602 -22.782 -88.0052
rradius 23.0552
rwrist 17.1802
rhand 1.76854 -65.6046
rfingers 7.12502
rthumb 27.2832 813.651
lclavicle -6.91771e-014 2.43511e-014
lhumerus -51.633 -14.4493 85.8048
lradius 106.268
lwrist 41.3646
lhand -31.8343 -29.6236
lfingers 7.12502
lthumb -5.08874 0.295276
rfemur -18.9229 26.799 15.7873
rtibia -4.74568
rfoot -51.2346 -37.5622
rtoes 49.0261
lfemur -39.9056 -24.4064 6.12315
ltibia 6.22224
lfoot -0.186451 15.3073
ltoes -15.7552
3487
root 1.41084 17.6186 7.36431 25.5658 27.1148 -10.9558
lowerback 31.7302 1.61496 7.53595
upperback 1.81747 4.5106 -1.6722
thorax -13.7984 1.52331 -7.70721
lowerneck -8.19779 -12.5382 -12.832
upperneck -19.1979 -13.3456 29.3549
head -0.789998 -7.07383 10.9543
rclavicle -1.17283e-014 1.20265e-014
rhumerus 106.979 -23.3602 -86.9469
rradius 23.4058
rwrist 16.4665
rhand 1.67126 -65.9507
rfingers 7.12502
rthumb 27.1902 814.011
lclavicle -1.17283e-014 1.20265e-014
lhumerus -51.5611 -14.1939 85.8813
lradius 106.347
lwrist 41.4321
lhand -32.0015 -29.5981
lfingers 7.12502
lthumb -5.25017 0.316841
rfemur -18.7575 27.0882 15.9146
rtibia -4.72746
rfoot -51.1547 -37.6892
rtoes 48.7974
lfemur -39.5217 -24.4312 6.12071
ltibia 6.09941
lfoot -0.193752 15.4942
ltoes -15.606
3488
root 1.40997 17.6183 7.36498 25.4918 26.9679 -10.9649
lowerback 31.7037 1.54842 7.3815
upperback 1.76143 4.35784 -1.75883
thorax -13.8846 1.4547 -7.66455
lowerneck -8.317 -12.493 -12.763
upperneck -18.9532 -13.3286 29.2764
head -0.719845 -7.04631 10.8971
rclavicle -1.98785e-016 -2.70347e-014
rhumerus 105.891 -24.9562 -83.6344
rradius 24.3456
rwrist 13.5383
rhand 1.36993 -66.8375
rfingers 7.12502
rthumb 26.9019 814.943
lclavicle -1.98785e-016 -2.70347e-014
lhumerus -51.5747 -14.0219 86.1208
lradius 106.377
lwrist 41.4599
lhand -32.1345 -29.6886
lfingers 7.12502
lthumb -5.37861 0.223131
rfemur -18.6673 27.2048 15.9319
rtibia -4.75309
rfoot -51.0539 -37.7927
rtoes 48.6144
lfemur -39.3717 -24.3734 6.02119
ltibia 6.1169
lfoot -0.264593 15.5145
ltoes -15.3473
